<svg xmlns="http://www.w3.org/2000/svg" viewBox="0 0 400 400" id="Team-Building-3--Streamline-Milano.svg" height="400" width="400"><desc>Team Building 3 Streamline Illustration: https://streamlinehq.com</desc><g fill="#000000"><path d="M97.84 254.92a2.6 2.6 0 0 1 0 -0.56 4.18 4.18 0 0 0 3.12 1.5 0.48 0.48 0 0 0 0 -0.96 2.44 2.44 0 0 1 -2.28 -2.3 0.62 0.62 0 0 0 -0.38 -0.6c-1.1 -0.48 -1.54 2 -1.32 3.12a0.48 0.48 0 0 0 0.86 -0.2zm5.78 -2.34c-0.48 0.28 -0.88 0.26 -0.88 0.74a0.56 0.56 0 0 0 0.52 0.58 2.36 2.36 0 0 0 1.58 -0.98 0.72 0.72 0 0 0 -0.18 -0.74s-0.96 -1.58 -1.1 -1.78 -0.92 -0.52 -1.12 -0.12 0.08 0.3 1.18 2.3zm-2.34 -5.5a0.6 0.6 0 0 0 -0.82 0.2l-0.78 1.06a0.76 0.76 0 0 0 0.68 1.14c0.6 0 0.72 -0.54 0.94 -1.08s0.5 -1.02 -0.02 -1.32zm4.42 3.76c0.54 -0.24 0.42 -0.72 0.7 -1.46a0.58 0.58 0 0 0 -1 -0.6c-0.44 0.68 -0.92 0.86 -0.84 1.44a0.8 0.8 0 0 0 1.14 0.62zM100 246.8q0.2 -0.64 1.14 -0.42c0.34 0 0.54 -0.24 0.58 -0.6 0.18 -1.28 -2.16 -1.28 -2.82 0.62a0.58 0.58 0 0 0 1.1 0.4zm-13.3 15.9a2 2 0 0 1 -2.38 -2c-0.44 -1.7 -2.28 -1.66 -3.68 -0.64a0.58 0.58 0 0 0 0.6 0.98c1.6 -1.02 1.84 -0.48 2 0.34 0.54 3.08 4.52 3.1 4.22 1.78a0.62 0.62 0 0 0 -0.76 -0.46zm190.16 -1.9c0.92 0 0.76 -1.06 0.84 -2.34a0.5 0.5 0 0 0 -0.46 -0.52c-0.66 0 -0.56 0.7 -1.08 1.72a0.76 0.76 0 0 0 0.7 1.14zm9.14 -6.32c-1.62 0.72 2.98 2 -0.72 14.36a0.64 0.64 0 0 0 1.24 0.38 19.26 19.26 0 0 0 0.14 -14.48 0.5 0.5 0 0 0 -0.66 -0.26zm10.86 -177.86a2.7 2.7 0 0 0 3 -0.42 7.72 7.72 0 0 0 1.78 -2.22 0.48 0.48 0 0 0 -0.82 -0.52 3.74 3.74 0 0 1 -3.6 2 0.66 0.66 0 0 0 -0.36 1.16zm-2.12 17.98c0.9 0 5 -3.44 5.6 -4a41.46 41.46 0 0 0 4.64 -4.6 0.46 0.46 0 0 0 0 -0.68c-0.86 -0.76 -0.72 1.68 -10.54 8a0.68 0.68 0 0 0 0.3 1.28zM151.82 13.68a1.06 1.06 0 1 0 -2 0 1.06 1.06 0 1 0 2 0zm53.4 -1.08a1.08 1.08 0 0 0 0 2.14 1.08 1.08 0 0 0 0 -2.14zM280 132.58c-1.1 1.42 1.16 3.7 2 4.86a11 11 0 0 0 5.2 3.76 3.26 3.26 0 0 0 1.26 -0.34 60 60 0 0 0 6.32 -4.76 1.32 1.32 0 0 0 0 -1.72s-3.24 -5.5 -4.58 -6a8.14 8.14 0 0 0 -5.84 0.6 34.9 34.9 0 0 0 -4.36 3.6zm1.36 0.5c3.62 -3 4 -3.74 7.1 -3.74 -1.72 1.22 -5.2 4 -5.22 4a2.1 2.1 0 0 0 -0.72 2.92 6.78 6.78 0 0 1 -0.88 -1.14c-0.64 -0.88 -1 -1.48 -0.32 -2.04zM288.4 136c0.42 0.46 1.32 1.32 1.86 1.78 -2.7 2 -3.32 1.84 -3.42 1.8a16 16 0 0 1 -3.18 -4.44 10.4 10.4 0 0 1 2.44 -2.38c0.36 0.6 0.76 1.22 1.18 1.82 -1.54 1.42 -0.86 2.32 1.12 1.42zm3 0.94a6.18 6.18 0 0 1 -1.84 -1.72c1.34 -1.34 1.02 -2.6 -1.1 -1.44 -0.42 -0.62 -0.82 -1.26 -1.22 -1.88 0.74 -0.58 2.36 -2 2.9 -2.38a30.76 30.76 0 0 1 3.8 5.7c-0.38 0.4 -2.06 1.48 -2.54 1.8z" stroke-width="1"></path><path d="m338.44 369.52 1.74 -1.22c0.5 -0.36 -0.14 -0.22 -6.54 -12.72a18.16 18.16 0 0 0 5.56 -11.36c0.74 -8.38 0.54 -31.62 0.88 -50.9 0.16 -10 0.52 -27.48 0 -31.76 -0.52 -3.8 -1.5 -11.64 -8 -14.26a14.28 14.28 0 0 0 4.6 -6 60.22 60.22 0 0 0 1.58 -9.88c0.44 -14.5 2.52 -64.26 1.14 -76.62 -0.64 -5.76 -1 -9.24 -3.52 -12.14 -3.34 -4 -16.92 -7.8 -27.38 -7.64a14.38 14.38 0 0 0 5.12 -11.02c0.36 0 0.24 0 0.9 -5.08 7.66 -8 10 -14.64 7.18 -20.22l1.36 -0.86a0.34 0.34 0 0 0 0 -0.44c-5.58 -7.88 -6.14 -9.12 -7.56 -10.6a15.18 15.18 0 0 0 -6.16 -4 3.18 3.18 0 0 0 -2.14 -4.28c2.14 -4.8 2.2 -4.38 3.4 -5.08a2.6 2.6 0 0 0 1.02 -3.52 14.38 14.38 0 0 0 1.54 -5.76c0.24 -5.54 -6.9 -11.34 -12.24 -8.56a13.8 13.8 0 0 0 -7.16 -0.96c-2.64 0.26 -4 0.62 -4.6 1.56 -1.1 1.58 0.6 3.5 1.78 4.72 0.52 0.54 0.46 0.48 2.54 2.76a2.66 2.66 0 0 0 -0.7 0.26 4.24 4.24 0 0 0 -0.74 4.14 10.2 10.2 0 0 0 1.66 10.64 6 6 0 0 0 -1.84 1.4c-3.08 3.04 -17.02 9.28 -16.74 10.16l0.42 1.2c-0.36 0.28 -1.14 0.92 -1.62 1.36 -11.54 -10.42 -10.9 -10.4 -11.74 -10.4 -0.24 0 -0.62 0 -1.26 0.68 -0.42 -0.58 -0.22 -1.52 -0.4 -2.34a3.22 3.22 0 0 0 -5.24 -1.56c-5.28 -7.52 -42.7 -58.8 -46.84 -64.12a3.68 3.68 0 1 0 -6.9 -2.18c-6.78 0 -42.22 -0.2 -47.1 -0.26a3.74 3.74 0 0 0 -6.24 -1.88 3.88 3.88 0 0 0 0.56 5.84s-0.2 26.76 -0.18 29.66c-2.18 0 -2.62 2.46 -2.58 4.64 -0.28 6.82 2.12 6.64 2.18 8.96a3.42 3.42 0 0 1 -2.62 3.24 3.68 3.68 0 0 1 -4 -1.1c-1.22 -2.68 3.7 -4 1.36 -10.14a0.68 0.68 0 0 0 -1.32 0.16c-0.3 3.66 -4.82 5.14 -5.04 9.08 -7.64 2 -27.62 6 -30 6.44 -2.6 -2.68 -5.3 0.64 -5 3.86 -2.24 0.66 -8.86 1.36 -12.46 5.5 -4.94 5.68 -4.52 13.42 -4.96 20.5C82.78 125.84 84 142.84 84 154c0 4.76 0.16 9.66 0.66 14.48 0.68 6.68 3.58 10.32 10 12.14 5.46 1.14 23.86 4.1 24 4.14a10.5 10.5 0 0 1 5.88 2c1.56 1.52 0.52 2.78 -0.64 4.22 -8.64 10.66 2.72 27.02 15.78 27.02 6 0 15.18 -5.34 20 -13.54a14.22 14.22 0 0 0 1.5 -6.72A14.68 14.68 0 0 0 160 190c12.3 2.22 31.52 9.04 37.16 -11.72 0 -0.22 -0.2 -16.58 -0.2 -16.78 -0.14 -8 -0.2 -9.82 -2 -11.36a7.04 7.04 0 0 0 -3.58 -1.56c-4.22 -0.76 -6 2 -9.82 2.5 -19.2 2.56 -17.32 -30 -4.48 -27.28 4.58 0.92 8.82 6.34 12.68 5 4.46 -1.52 5.46 -6 6.72 -7.66 0.3 -0.36 1.24 -25.78 0.9 -27.38 0 0 -0.94 -7.2 -10 -9.48a9.52 9.52 0 0 0 -0.52 -4.9A2.78 2.78 0 0 0 182 80c-11 -5.46 -20.14 -10.2 -28.7 -14.88a6.42 6.42 0 0 0 1.06 -6.56 12 12 0 0 0 -1.16 -2c-2.14 -3.18 -1.14 -3.58 -1.26 -6.42a4 4 0 0 0 -2.26 -3.82c0 -3.04 0.22 -26 0.24 -29.34A3.66 3.66 0 0 0 154.44 14c6.7 0.1 42.22 0.24 47.14 0.26a3.72 3.72 0 0 0 6.18 1.78c4 5.72 44.1 60.58 46.26 63.56 -2.38 0.44 -3.14 2.94 -2 3.6a1.5 1.5 0 0 0 1.38 1.6 1.54 1.54 0 0 0 2.16 1.14 4.3 4.3 0 0 0 0.92 1.46 1.78 1.78 0 0 0 0.1 2c3.76 7.2 8.26 14.94 15.66 16.58a11.6 11.6 0 0 0 5.26 -0.16c1.86 1.88 3.1 3.14 3.66 3.66 -2.26 5.36 -2.52 5.06 -2 5.38 -2.64 1.12 -4.58 2.28 -7.48 3.76 -6 3.08 -10.26 5.24 -13.72 9.4a36.76 36.76 0 0 0 -10 -0.98c-15.66 0.68 -17.36 10.5 -18 15.24a44.12 44.12 0 0 0 -0.14 8.12s0.5 13.02 0.64 16.2a10 10 0 0 0 -5.2 -3.18C196.94 158.32 194 198 218.92 198.96c6.54 0 8.18 -2.82 10.1 -0.68 6 8.94 -1.56 24.54 2.94 36a14.96 14.96 0 0 0 5 6.92c-3.64 0.98 -5.86 4.64 -6.62 10.9a133.6 133.6 0 0 0 -1.5 24.38c-6 -6.68 -14.72 -7.18 -22.52 -3.62 0 -4 0 -19.54 -0.74 -29.8 -0.5 -6.48 -3.3 -9.8 -8.74 -11.86 -8.34 -3.16 -23.82 -5.5 -30 -2.12a14.26 14.26 0 0 0 -5.24 4.34c-1.02 2.54 0.5 4.72 1.38 6.86 5.58 14.3 -11.82 21.52 -20.14 13.14a15.6 15.6 0 0 1 -2.12 -16.66c3.04 -7.18 3.5 -9.4 -2.14 -12.3a30 30 0 0 0 -9.76 -2.8c-12 -2 -24.74 -2.78 -29.04 6a3.64 3.64 0 0 0 -2.56 0.94 2.64 2.64 0 0 0 -4.26 0c-1.42 -1.34 -3.62 -0.48 -3.7 2a3.56 3.56 0 0 0 -3.82 2.78 2.72 2.72 0 0 0 -1.64 3.74 3.28 3.28 0 0 0 -2.16 3.7 2.44 2.44 0 0 0 -1.58 3.06 1.44 1.44 0 0 0 0.68 2.44 1.4 1.4 0 0 0 0.82 2c-1.3 2.24 0.22 4.68 2.56 3.82a1.38 1.38 0 0 0 0 0.26c-8.3 9.6 -16.38 26.16 -14.12 37.32 -2.68 4.8 -1.82 7.52 -2.54 15.34 -0.98 10.62 1.72 16.16 -2.14 25.86 -0.2 0.48 0.64 0.46 1.16 0.48 -1.46 4 -9.54 26.82 -10 28.12a13.88 13.88 0 0 0 -0.52 6.34 0.28 0.28 0 0 0 0.52 0.14l2 -2.66a6 6 0 0 0 2.42 3.34c0.98 0.62 8.9 1.2 9.26 0s-1.2 -1.52 -2.66 -2.84a7.8 7.8 0 0 1 -2.78 0.8 0.7 0.7 0 0 1 -0.16 -1.38 7.06 7.06 0 0 0 2 -0.5 7.84 7.84 0 0 1 -0.82 -1.4 7.64 7.64 0 0 1 -2.84 0.54 0.7 0.7 0 0 1 0 -1.4 6 6 0 0 0 2.32 -0.44c-0.14 -0.38 -0.26 -0.8 -0.38 -1.22 3.12 -3.7 16 -20.46 17.24 -22.16a36.92 36.92 0 0 0 17.32 -3.18 101.22 101.22 0 0 1 0.6 16.3c0.18 4.48 -3.38 6.74 -2.44 13.34a0.28 0.28 0 0 0 0.22 0.24c0.26 0 0.14 0.14 2.36 -2.78a6 6 0 0 0 2.38 3.4c0.98 0.6 8.9 1.2 9.26 0s-1.16 -1.4 -2.78 -3.14a7.76 7.76 0 0 1 -2.22 0.48 0.7 0.7 0 0 1 0 -1.4 6.66 6.66 0 0 0 1.34 -0.24 13.3 13.3 0 0 1 -0.78 -1.26 8 8 0 0 1 -1.74 0.34 0.7 0.7 0 0 1 0 -1.4 6.66 6.66 0 0 0 1.22 -0.22l-0.24 -0.7a79.18 79.18 0 0 0 7.42 -22.2c2.62 0.32 61.14 7.68 68.82 8.58 6.94 0.8 14.34 0.66 18.82 -4.36 2.96 -3.32 3.22 -7.32 3.5 -12 0.44 -7.06 0.74 -14.18 0.92 -21.16 9.66 5.88 19.48 3.38 26.36 -6.76 3.16 -4.94 2.3 -12.22 -0.44 -17.56a13.08 13.08 0 0 0 10 -1.6l0.5 0.64c-0.94 3.56 2 7.32 4.3 10.34 8.76 11.42 11.4 12.14 25.34 5.44a15.28 15.28 0 0 1 -3.54 8.44c-4.46 5.04 -9.16 4.6 -15.34 4.38 -5.38 -0.64 -7.14 -3.38 -12.86 -4.58s-10.96 1.06 -10.92 6.74c0 0 0 13.36 0.14 17.78 0 6 1.16 16.84 9.66 20.68a340.68 340.68 0 0 0 35.7 6.32 98.18 98.18 0 0 0 9.62 26.56 0.32 0.32 0 0 0 0.34 0.14l1.08 -0.28a16 16 0 0 1 0.32 2.5 6.28 6.28 0 0 1 -3.28 2.14 2.46 2.46 0 0 0 -2.1 2c-0.4 2.96 10.4 0.98 13.62 1.2a0.44 0.44 0 0 0 0.4 -0.32 19.3 19.3 0 0 0 -0.26 -6.2c-0.12 -0.62 -0.34 -2.8 -0.38 -3.52 0.98 -0.26 1.28 -0.26 1.28 -0.56 0.22 -6.36 0.42 -13.42 0.46 -20.8 4.32 0.56 13 1.56 18.32 2a55.38 55.38 0 0 0 14.96 15.18c0.24 0.14 0.26 0 1.78 -1.02 0.46 0.54 2.56 2.84 2.98 3.46a6.38 6.38 0 0 1 -1.64 3.72c-1.76 1.88 -0.12 4.72 2.3 3.22 0.36 -0.22 1.3 -1.02 2.52 -2 7.02 -5.82 6.7 -4.96 6.76 -5.34s-3.62 -5.48 -5.6 -8.14zM142.26 54.66c0.36 2.9 -1.86 3.8 -2.26 6.14 -0.4 3.86 5.1 5.08 8 2.82l3.28 2c-4.22 3.02 -12.5 1 -12.98 -3.64 -0.3 -3.06 2.5 -4.46 3.96 -7.32zM103.4 69.5c0.98 -2.64 2.8 -1.1 3.02 1.8 -0.76 0 -2.52 -0.24 -3.32 -0.26a4.14 4.14 0 0 1 0.3 -1.54zm80 11.16c0.36 -0.7 1.2 -1.26 1.84 -0.9 1.08 0.9 0.88 2.62 0.86 4.14l-3.2 -0.84a5.6 5.6 0 0 1 0.56 -2.4zm5.16 10.14a16 16 0 0 1 4 8c0.3 1.8 0.8 25.72 -2.22 28 -3.64 2.8 -9.26 -5.28 -15.22 -4.82 -10.58 1.2 -17.74 15.02 -10.92 26.14 4.38 7.16 13.8 10.82 17.9 8.42a9.88 9.88 0 0 1 4.58 -2.34c7.8 -0.8 4.36 16.62 4.62 22 0.22 4.12 0.6 11.82 -6.94 14.5 -6 2 -12.36 0.72 -18 -0.76 -6.32 -1.68 -14.5 -4 -16.74 2.22a0.34 0.34 0 0 0 0 0.28 23.32 23.32 0 0 1 2.26 3.78c3.1 6.42 2.66 8.66 0 13.4 -13.28 18.58 -37.76 -4 -26.82 -17.52a5.32 5.32 0 0 0 1.86 -4.1c-0.74 -3.3 -4.6 -4 -7.42 -4.44l-18.46 -3.12c-14.84 -2 -14.8 -6.42 -15.34 -17.8a642.74 642.74 0 0 1 0.16 -69.12c0.3 -6 0.72 -14 7.18 -18 4.46 -2.66 28.64 2 48.84 4.94 13.2 1.88 26.84 3.72 36.46 5.8 4.5 1 7.66 1.84 10.28 4.54zm-6.94 -9.56c-0.74 3.84 6.88 -0.56 -73.68 -9.76a8.16 8.16 0 0 0 -0.6 -2.76c3.36 -0.68 25.68 -5.54 29.24 -6.42 1.1 6.2 11.36 8 15.72 4 3.44 1.8 25.88 13.32 29.38 14.94zM150.54 49.82a39.56 39.56 0 0 0 0.28 4.56c0.68 2.66 3.12 4.52 2.72 7.24a5.88 5.88 0 0 1 -1.32 2.98l-3.5 -1.88c1.4 -2.72 1.22 -3.6 0 -5.68a8.36 8.36 0 0 1 -1.26 -5.78c0 -1.06 -0.12 -2.86 0.8 -3.42s2.08 0.78 2.28 1.98zm1.88 -34.36c-2.3 1.74 -4.92 -1.2 -3.36 -3.5a2.26 2.26 0 0 1 4 0.6 3.72 3.72 0 0 1 -0.64 2.9zm54.36 0A2.46 2.46 0 0 1 203.42 12a2.28 2.28 0 0 1 4 0.48 4 4 0 0 1 -0.64 3zM72 278.32a3.18 3.18 0 0 1 2.34 -0.36c0.96 0.18 1.44 0.8 2 1.76a3.84 3.84 0 0 0 6.78 1.28c0.18 -0.2 0.4 -0.44 0.68 -0.36 0.68 0.18 1.3 1.7 1.64 2.52 2 5.06 4.62 3.02 5.6 3.58 0.66 0.4 1.16 1.22 2.16 1.44a1.56 1.56 0 0 0 2 -1.68 0.56 0.56 0 0 0 -1.12 0.14c0 0.5 -0.74 0.28 -1.02 0.1 -0.66 -0.44 -1.46 -1.44 -2.74 -1.34 -3.46 0.84 -3.48 -3.06 -5.16 -5.1s-3.18 0.98 -4.9 0.94c-2.22 0.12 -2.6 -2.34 -4 -3.66a4 4 0 0 0 -3.78 -0.74 63.22 63.22 0 0 1 2.7 -7.28 2.98 2.98 0 0 1 3.28 -0.64c1.7 0.84 1.2 5.12 4.88 2.7l0.58 -0.38a2.62 2.62 0 0 1 3.08 0.72 9.24 9.24 0 0 0 0.66 2.4 0.5 0.5 0 0 0 0.66 0.28c0.98 -0.34 -0.26 -1.5 -0.18 -4.44a10.5 10.5 0 0 1 4.98 -8.78 0.54 0.54 0 0 0 -0.56 -0.92 11.84 11.84 0 0 0 -5.64 9.84 4.14 4.14 0 0 0 -2.46 -0.54c-1.64 0 -2.78 2.3 -3.5 0.5a3.86 3.86 0 0 0 -4.96 -2.78 65.8 65.8 0 0 1 9.14 -14 2 2 0 0 0 1.68 0.12 1.8 1.8 0 0 0 2.86 1.64 2.48 2.48 0 0 0 3.66 -1.54 2.18 2.18 0 0 0 1.64 -3.6 0.34 0.34 0 0 0 -0.26 -0.14c-2.76 0 -2 -3.28 0.16 -3.26a1.82 1.82 0 0 1 1.44 0.62 0.3 0.3 0 0 0 0.52 -0.14c1.74 -7.36 11.52 -4.34 10.78 1.78a33.16 33.16 0 0 1 -3.28 6.26c-1.52 2.68 -3.38 2.8 -6 2 -0.84 -0.22 -0.58 1 -2.52 3.22a13.32 13.32 0 0 0 -7.82 -3.98 0.58 0.58 0 0 0 -0.6 0.52c-0.26 2 4.64 -2.14 13.12 12.12a2 2 0 0 1 -1.4 0.76 3.24 3.24 0 0 0 -3.6 2.86c0.12 1.28 -0.2 1.3 -1.28 1.18 -2 -0.2 -2.5 0.4 -2.74 1.66 -0.14 0.78 -0.2 0.84 -1.02 1.36a4.18 4.18 0 0 0 -1.08 0.9c-0.5 -0.64 -0.96 -1.32 -1.4 -2a0.6 0.6 0 1 0 -1.02 0.64 33.68 33.68 0 0 0 12.34 11.04 19.06 19.06 0 0 1 0.3 4.94 0.54 0.54 0 0 0 -0.66 0.64c0.1 0.32 -0.24 0.56 -0.52 0.54 -1.36 0 -2.6 -2.62 -5.32 0.34 -1.42 1.64 -2.44 -1.2 -4.28 -1.36 -1.26 -0.12 -1.74 1.42 -2.6 1.26 -1.22 -0.2 -1.8 -1.44 -2.76 -2.26 -2.7 -2.38 -4.2 1.22 -6.64 -1.34 -1.06 -1.1 -1.24 -2.6 -2.78 -3.28 -0.84 -0.36 -2.68 -0.54 -3.2 -1.34a32.24 32.24 0 0 1 1.14 -7.36zm39.62 5.14a1.48 1.48 0 0 1 0.16 -1.52l1.84 0.96a2 2 0 0 0 -0.7 3.02c1.1 1.6 -2 1.38 -2.48 3.4l-1.84 -0.26c-0.36 -1.72 0.38 -2.78 2.36 -3.34 1.04 -0.36 1.04 -1.26 0.64 -2.26zm2.64 2.16c-0.8 -1.04 -0.5 -1.5 0.72 -2 1.52 0.78 3.48 1.76 5.48 2.64a20.22 20.22 0 0 1 -1.3 3.3 45.3 45.3 0 0 1 -7.36 0 4 4 0 0 1 1.12 -0.8c1.08 -0.76 1.96 -1.92 1.32 -3.14zm-3.56 -1.26c0 0.32 -0.54 0.32 -1.02 0.5a3.82 3.82 0 0 0 -2.42 4 32.18 32.18 0 0 1 -13.48 -6.44 0.6 0.6 0 0 1 0 -0.74c0.62 -0.26 1.46 -0.22 1.84 -1.06s0 -1.44 0.3 -1.86 1.2 0.26 1.58 0.32c1.88 0.34 2.82 -1.22 2.36 -3.06s1.28 -1.88 2.92 -1.78c1.38 4.22 4.12 5.32 7.86 7.2a2.9 2.9 0 0 0 0.04 2.92zm-11.4 -10.48c-1.54 1.44 0 3.22 -0.88 3.74s-2.1 -1.06 -3.28 -0.12a2.6 2.6 0 0 0 -0.68 2.1c0 0.78 -1.42 0.22 -2 1.68 -2.46 -2.24 -1.82 -2 -2.22 -2.36 0 -0.32 1.04 -0.94 1.3 -1.1a2.38 2.38 0 0 0 1.18 -1.86c0.12 -1.62 2.34 0.18 3.6 -1.34 0.6 -0.7 0.24 -1.6 0.48 -2.2a2 2 0 0 1 1.72 -1.34 3.52 3.52 0 0 0 2.58 -0.8 20.84 20.84 0 0 1 1.24 2.66 4.48 4.48 0 0 0 -3.06 0.94zm-36.32 85.02a2.8 2.8 0 0 1 -3.66 -2.18c0.32 -1.88 8.5 -24.12 9.16 -26a4.18 4.18 0 0 0 1.5 -2.52c1.22 -4.8 2.62 -13.08 3.62 -17.12 4.68 8.14 2.82 18.56 0.36 23.7a0.3 0.3 0 0 0 0 0.26 26.4 26.4 0 0 0 6.28 1.38c-8.38 11.98 -16.78 21.88 -17.26 22.48zm8.14 -69.44a16.78 16.78 0 0 1 -0.26 -2.32 6.92 6.92 0 0 0 1.58 0.7c1.54 0.52 1.68 0.68 2.24 1.82a5.16 5.16 0 0 0 3.78 3.08c1.58 0.22 2.88 -1.22 4 -0.26s1.66 2.12 3.02 2.66a2 2 0 0 0 2.6 -0.72c0.46 -0.54 0.68 -0.78 1.58 0 3.26 2.96 4.42 0 5.38 -0.58s2.48 1.58 4.12 0.76a9.44 9.44 0 0 1 -0.7 1.62c-5.62 2.1 -19.8 4.4 -27.34 -6.76zm34 66.34a2.78 2.78 0 0 1 -4.2 -1.16c0.52 -3.4 0.88 -8.68 -0.32 -21.74a39.36 39.36 0 0 0 12.2 -9.84c1.7 11.96 -3.36 22.7 -7.6 32.74zm123.66 -58a15.6 15.6 0 0 1 -8.16 8.46 16 16 0 0 1 -12 -0.92c-3.54 -1.68 -5.28 -3.9 -8.44 -2.86a0.3 0.3 0 0 0 -0.2 0.28c0 25.2 1.64 28.86 -2 34.46 -0.96 1.52 -4.3 4.98 -14.34 4.18 -5.3 -0.42 -58 -7.02 -69.66 -8.5a39.28 39.28 0 0 0 -0.2 -11.24c0.84 -1.12 1.14 -1.4 0.94 -1.66 -6.94 -9.24 -6.98 -8.58 -9.72 -12.72a22.14 22.14 0 0 0 -4 -4.98 4.24 4.24 0 0 1 -2 -4.38c2.26 -2.48 2.18 -6 1.68 -9.64 8 3.3 17.16 3.14 18.74 2.54 1.64 0.7 8.6 1.62 8 -0.78 1.66 -0.14 2 -1.48 1.42 -2.28a1.28 1.28 0 0 0 0.52 -1c0 -1.44 -2.22 -1 -3.48 -0.74 -0.68 0.14 -0.58 0.16 -0.5 -0.1 0.24 -0.76 0.54 -1.64 -0.2 -2 -1.18 -0.56 -1.56 1.48 -3.74 2 0 -0.58 0.66 -0.32 -10.4 -6 -4.68 -2.4 -5.44 -2.38 -7.5 -7.24a46.76 46.76 0 0 0 -7.24 -11.34 12.9 12.9 0 0 0 2 -2.78 5.26 5.26 0 0 0 6.42 -2 28 28 0 0 0 3.36 -6.26 15.56 15.56 0 0 0 1.54 -1.26c1.08 0.6 3.18 -0.64 2.82 -1.74 1.06 -0.24 2 -1.32 1.46 -2.14 1.16 -0.36 1.32 -1.72 0.48 -2.74 0.64 -0.72 -0.26 -2.12 -0.72 -2.92 0.46 -0.7 -0.36 -2 -1.04 -2.38a2 2 0 0 0 -2 -2.52c0 -1.34 -1.12 -2.96 -2.46 -2.58 -0.16 -1.64 -0.92 -2.48 -2.58 -2.16a2.62 2.62 0 0 0 -3.82 -0.64 2.24 2.24 0 0 0 -0.98 -1.34 5.78 5.78 0 0 1 2.62 -2.68c4.22 -2 8.36 -1.46 12.32 -1.02 0.14 0 14.56 2 17.84 2.92a5.08 5.08 0 0 1 3.76 2.8c0.36 1.02 -0.2 1.8 -1.3 4.66 -2.14 5.56 -3.5 12.44 -0.94 17.78 8.8 15.24 35.68 5.36 28.96 -12.94 -1.74 -2.66 -2 -4.66 -0.88 -6 4.62 -5.12 29.52 1.26 32 2.56a13.68 13.68 0 0 1 3.16 2.26 9.4 9.4 0 0 1 1.7 3.16c0.94 2.98 1.46 18.28 1.3 37.18a0.32 0.32 0 0 0 0.16 0.28c0.48 0.26 2.14 -2 8 -3.5a14.88 14.88 0 0 1 17.38 6.98c3.26 5.68 3.82 10.9 2 15.46zm-104.48 -10.72c0.28 0.28 0.68 0.12 1.26 0s3.02 -0.76 3.02 -0.26 -2.68 0.96 -3.52 0.9 -0.64 0.78 0 0.86 3.08 -0.38 3.28 0c-0.14 0.56 -1.14 0.7 -3.06 0.56a0.38 0.38 0 1 0 -0.22 0.74c0.3 0.12 1.78 0.12 1.76 0.52a4.98 4.98 0 0 1 -1.6 0.34 12.9 12.9 0 0 1 -4.72 -0.82 19.02 19.02 0 0 0 1.06 -2.88 4.6 4.6 0 0 0 3.16 -1.8c-0.14 0.76 -0.72 1.42 -0.34 1.82zm0.82 2.64zm207.78 -34.76c0.38 -0.24 0.5 0.54 0.26 1.3a0.32 0.32 0 0 0 0.16 0.38c0.32 0.14 0.42 -0.22 0.84 -0.9s0.64 -1.38 1.06 -1.64 0.6 -0.26 0.54 0a11.62 11.62 0 0 1 -1.78 2.88 0.38 0.38 0 0 0 -0.1 0.56c0.5 0.64 1.46 -0.98 2 -2s1 0 0.48 0.72a20.98 20.98 0 0 1 -1.48 1.8 0.4 0.4 0 1 0 0.46 0.66 11.7 11.7 0 0 0 1.22 -1.24c1.26 0.46 -1.48 3.08 -2.5 4a4.66 4.66 0 0 0 -2.56 -3.04 16.28 16.28 0 0 1 1.48 -3.5zm-30.3 -118.2 -2 0.84a14.96 14.96 0 0 0 -2.6 -9.9 6.5 6.5 0 0 0 1.18 -1.06c0.98 1.26 1.72 1.86 3.46 0.9 0.78 -0.34 4.78 -2.66 6 -3.58H312a13.58 13.58 0 0 1 -9.4 12.8zm-7.04 -11.6c-1.74 0.44 -2.38 0.2 -2.54 0 0.28 -0.26 1.74 -0.24 2 -0.42a0.42 0.42 0 0 0 -0.38 -0.74 2 2 0 0 1 -1.46 -0.18 0.52 0.52 0 0 1 -0.22 -0.46c0 -0.88 1.9 0.14 3.58 -0.86a22.32 22.32 0 0 0 2 3.36c-1.64 1.8 -4.32 1.88 -4.78 1.28 -0.14 -0.18 0 -0.34 0.14 -0.44 0.62 -0.24 1.7 0 2.24 -0.84a0.46 0.46 0 0 0 -0.58 -0.7zm-1.34 -4c2.18 0.22 1.82 0 2 0.46a10.24 10.24 0 0 1 -1.16 0.42 6.4 6.4 0 0 0 -0.84 -0.98zm19.26 -18c2 -1.12 3.54 -1.68 7 -3.76 4.66 9.74 -8 21.48 -18.4 26.68 -0.16 0 -0.84 0.52 -1.02 0.48a16.92 16.92 0 0 1 -3.5 -6 35.52 35.52 0 0 0 4.98 -4.56 37.82 37.82 0 0 0 6 -9.66 0.32 0.32 0 0 0 -0.32 -0.22c-4.58 0.22 -6.26 -3.84 -6.2 -8.34 0 -1.12 1.22 -1.6 1.3 -0.48 0.2 3.06 0.3 6 3.28 7.18a8.14 8.14 0 0 0 6.88 -1.32zm-4.78 -45.04c3.2 2.46 4.14 5.86 2.26 10.22 -0.42 0.96 -0.2 0.76 -0.66 0.68a11 11 0 0 0 -1.84 -5.16 10.14 10.14 0 0 0 0.24 -5.74zm0.28 11.16a1.18 1.18 0 0 0 -0.36 0.28 9.42 9.42 0 0 0 -3.76 -2c0 -0.2 0.12 -0.8 0 -0.96 -1.74 -2.18 -5.54 -2.24 -5.88 -1.68a6.24 6.24 0 0 0 -0.66 1.46 2.38 2.38 0 0 0 -0.72 -0.18c0 -0.32 0.14 -1.56 -0.1 -1.74a4.58 4.58 0 0 0 -1.1 -0.62 6.52 6.52 0 0 1 7.62 -1.34 9.48 9.48 0 0 1 4.96 6.78zm-2.36 -12.42a6.16 6.16 0 0 1 1.04 5.44 16.24 16.24 0 0 0 -5.14 -5.9 6.22 6.22 0 0 1 4.1 0.46zm-12.18 -0.7a11.34 11.34 0 0 1 11.06 5.38 7.86 7.86 0 0 0 -10.54 1.82c-4.72 -5.36 -7.38 -6.7 -0.52 -7.2zm-1.22 12.88a4.38 4.38 0 0 0 2 0.32 1.18 1.18 0 0 1 -0.34 0.36 0.78 0.78 0 0 0 -0.28 1.04 5.82 5.82 0 0 0 1.74 1.62 0.62 0.62 0 0 0 0.72 -0.9l-0.7 -0.98a6.44 6.44 0 0 0 0.94 -3.12 0.68 0.68 0 0 1 0.74 0.12 2.36 2.36 0 0 0 0 0.52 3.5 3.5 0 0 0 6.54 0.5 9.16 9.16 0 0 1 3.66 2 0.66 0.66 0 0 0 1.2 0.16c0.36 -0.54 1.2 -0.18 1.32 0.38 0.2 1.1 -0.94 1.32 -1.8 2A32.5 32.5 0 0 0 306 78.6a0.6 0.6 0 0 0 0.1 0.72 22.1 22.1 0 0 1 -11.52 7.62 3.7 3.7 0 0 0 -0.74 -3.14c-0.24 -0.22 0.54 -1.02 1.08 -1.84a11.6 11.6 0 0 0 0.8 -1.42c0.36 0.3 0.7 0.64 1.04 0.26a0.5 0.5 0 0 0 0 -0.74c-3.94 -3.32 -5.06 -6.66 -3.54 -11.02zm-4 15.3a20.46 20.46 0 0 1 5.2 -4.34c-0.36 0.76 -2 3.18 -2 3.54a1.34 1.34 0 0 0 0.32 0.96 4 4 0 0 1 0.58 2.68l-0.6 0.14a0.48 0.48 0 0 0 0.16 0.96 20.88 20.88 0 0 0 14.16 -8.54c1.36 0.42 1.62 1.56 1.28 2.94a30 30 0 0 1 -8.66 10.6c-2.84 2.2 -4.72 3.66 -6 3.1a36.42 36.42 0 0 1 -3.08 -7.52c-1.12 -3.12 -1.48 -3.58 -1.26 -4.52zm1.64 34.56c-0.68 0.66 -1.38 -0.42 -8.3 -7.88a0.6 0.6 0 0 1 0.86 -0.86c7.64 7.58 8.12 8.2 7.54 8.74zm-38.2 -36.34s-0.18 -0.28 0 -0.66a2.52 2.52 0 0 1 2.26 -1.44 6.98 6.98 0 0 0 -0.12 0.74 15.24 15.24 0 0 0 -1.84 1.26s-0.16 0.12 -0.2 0.1zm1.34 1.44c-0.38 0.18 -0.92 -0.42 -0.82 -0.84 0.42 -0.32 1.14 -0.68 1.66 -1.04a4.7 4.7 0 0 0 0.38 0.78 2.22 2.22 0 0 1 -1.22 1.1zm0.44 0.72c0 -0.4 0.42 -0.18 1.46 -1.52a1.24 1.24 0 0 0 1 -0.14c0.76 -0.46 1.6 -2.48 0.68 -2.6a0.44 0.44 0 0 0 -0.52 0.38c0 0.58 -0.62 1.5 -1.1 1s0.7 -3.08 2.76 -2c1.42 0.64 0.48 2.76 1.54 4 -0.5 0.44 -0.98 0.9 -1.46 1.36l-1.2 -1.18c0.38 -0.76 -0.26 -0.9 -0.5 -0.68 -0.98 0.78 -2.46 2.5 -2.76 1.38zm2.22 0.64 0.32 -0.38c0.34 0.32 0.7 0.66 1.06 1.04l-0.6 0.62a4.5 4.5 0 0 1 -0.88 -1.28zm17.02 19.7c-7.72 -1.04 -12 -9.4 -15.84 -16.1 -0.44 -0.78 -0.16 -0.62 1.24 -2 3.68 3.68 16.26 16.6 17.52 17.9a10 10 0 0 1 -3.02 0.2zm-13.84 -18.76c3.16 -3.12 2 -3.18 3.56 -1.68s8.6 7.76 10.34 9.36a0.56 0.56 0 0 0 0.78 0 9.72 9.72 0 0 1 1.64 -1.24 92.76 92.76 0 0 0 4.44 10.22 8 8 0 0 1 -2.66 1.62c-5.34 -5.4 -13.94 -14.08 -18.2 -18.28zm19.06 19.26a8.84 8.84 0 0 0 2.28 -1.44c0.44 0.78 0.5 0.9 0.7 0.92a0.32 0.32 0 0 0 0.26 -0.12 21.2 21.2 0 0 0 4 -11.2c0.12 -1.06 1.3 -0.78 1.22 0.28a22.9 22.9 0 0 1 -4.8 12.52c0 0.18 -0.38 0.98 -0.8 2 -0.68 -0.52 -1.76 -1.66 -2.96 -2.96zm-6.1 14.14a62.88 62.88 0 0 1 7.66 -4 41.04 41.04 0 0 0 11.54 5.02 6.16 6.16 0 0 1 1.58 1.18 1.64 1.64 0 0 0 -1.46 2.5 1.08 1.08 0 0 0 0.42 1.86c-0.86 1.54 1.06 3.26 4 2.14a0.32 0.32 0 0 0 0 0.14c2.32 2.64 2.52 6.2 2.54 9.58 -10.84 4.16 -11.54 3.86 -11.24 4.72a0.56 0.56 0 0 0 0.66 0.4c0.5 -0.12 1.02 -0.24 1.54 -0.4 -1.06 7.1 0.24 14.16 -0.52 21.2a30 30 0 0 1 -0.68 4.36 16.72 16.72 0 0 1 -4 0.88c-1.08 0.16 -2.86 0.7 -3.54 -0.2a6.12 6.12 0 0 1 -0.66 -1.66c-6.42 -19.16 -9.3 -25.32 -6.84 -31.62 2 -4.96 7.44 -7.22 11.22 -10.84 0.48 -0.42 -0.18 -1.12 -0.66 -0.72 -5.6 4.74 -13.08 6.38 -13.1 16.14 -4.2 0.24 -6.36 4.26 -8.42 7.82 -0.42 0.7 -8 12.74 -8.68 12.52a46.6 46.6 0 0 1 -7.1 -3.8c-0.44 -0.42 0.12 -1.42 0.32 -2 10.32 -29.46 13.02 -28.2 25.32 -35.22zm8.34 56.62 -0.94 -0.64 0.38 -0.36a3.18 3.18 0 0 0 1.76 0.56 0.38 0.38 0 0 0 0 -0.76 4 4 0 0 1 -0.9 -0.54l0.4 -0.42a6.48 6.48 0 0 0 1.52 0.66c0.32 0 0.44 0 0.48 -0.18s-0.18 -0.32 -1.26 -1.28a2.84 2.84 0 0 0 0.28 -0.46 7.02 7.02 0 0 0 5.78 0c0.12 0.9 0.48 3.36 0.52 3.8a100.32 100.32 0 0 1 -10.4 0.78c0 -0.12 0 -0.42 0.76 -1.06 0.44 0.24 1.5 0.76 1.78 0.46a0.34 0.34 0 0 0 -0.26 -0.56zm2.12 -5.24 4.84 -0.76c0 0.36 0.1 1 0.12 1.34a5.3 5.3 0 0 1 -4.88 0c-0.12 -0.18 -0.14 -0.4 -0.18 -0.58zm-33.18 -4c-0.22 0 -8.78 -3.3 -9.7 -4 0.12 -0.24 0.56 -0.4 0.96 -0.54 0.28 0.4 1.02 1.32 1.4 1.2a0.34 0.34 0 0 0 0.2 -0.38s-0.6 -1.1 -0.64 -1.16l0.68 -0.22a3.5 3.5 0 0 0 1.3 1.3 0.4 0.4 0 0 0 0.32 -0.72 3.88 3.88 0 0 1 -0.58 -0.9l0.6 -0.22a4.82 4.82 0 0 0 1.24 1.38c0.4 0.14 0.6 -0.44 0.34 -0.56a10 10 0 0 1 -0.56 -1.24 2.38 2.38 0 0 0 0.44 -0.24 7.36 7.36 0 0 0 5.2 2.66c-0.12 0.48 -0.7 2.3 -1.16 3.42 -0.12 0.08 -0.12 0.16 -0.12 0.16zM247 160l0.42 -1.16 4.32 2.4c-0.1 0.26 -0.24 0.66 -0.34 0.88 -0.92 0.06 -3.98 -0.54 -4.4 -2.12zm-15.36 64.5c0 -8 2.5 -16.48 -0.26 -24.48 -1.44 -4.2 -3.54 -4.46 -6.7 -3.44a16 16 0 0 1 -18.14 -5.78c-8.54 -11.8 2.2 -31.64 17.1 -23.26a12.92 12.92 0 0 1 4.1 4.26 2.86 2.86 0 0 0 4.2 -2.4c-0.2 0 0.16 1.46 -0.52 -16.86 -0.2 -6.54 -1.06 -15.12 4.2 -19.26 6 -3.8 14 -2.32 19.6 -1.08a150.58 150.58 0 0 0 -9.34 23.46 2 2 0 0 0 0.58 2.52c-0.14 0.32 -0.36 0.88 -0.46 1.12 -2.26 1.58 -7.7 1.76 -7.14 4.18 0.24 1.06 9.62 4 10.24 4.38 1.56 0.78 1.4 0.72 3.26 -4.12a1.24 1.24 0 0 0 0 -1.08 9.8 9.8 0 0 0 0.36 -0.92c0.84 0.36 2 0.78 2.9 -0.24 10 -12.58 9.66 -18.92 15.76 -19.78a38.58 38.58 0 0 0 2.1 9.16c0.36 1.08 5.9 17.72 6.32 18.6a2.78 2.78 0 0 0 2.16 1.6c0 0.68 0.6 -0.42 -3.84 4.66 -0.52 0.6 -1.3 1.5 -0.84 2.44a1.7 1.7 0 0 0 1.66 0.84c0.2 0 10.38 -1.06 10.78 -1.34a1 1 0 0 0 0.3 -1.04c-0.46 -2.9 0 -4.36 -0.82 -4.92 0 -0.4 -0.1 -1.18 -0.16 -1.6 1.02 -0.3 1.18 -1.36 1.28 -2 1.68 -9.56 0.1 -17.14 1.08 -25.64 2.56 -0.84 5.14 -1.8 7.8 -2.86 0 5.34 -0.78 33.88 -0.82 38 -1.82 18.12 14.14 25.88 8.44 40.4a0.6 0.6 0 0 0 1.1 0.46c3.52 -7.58 0.64 -14 -3.2 -21.3 -6.68 -12.8 -4.92 -10 -4.24 -58l0.7 -0.3c7.66 0.64 25.14 2 29.66 8.52a12.96 12.96 0 0 1 2.2 7.72c0.2 26 0.1 39.14 -1.7 85.2 -1.1 11.54 -24.34 6.66 -34.26 6.3 -2.76 0 -5.66 -0.3 -4.42 -2.76 0.7 -1.22 2.22 -1.7 3.42 -2.44 4.24 -2.64 6.56 -14.38 -2.42 -22.2 -14 -12.12 -36 0.9 -25.38 20.46 2.46 4 -1.18 4.28 -5.82 3.72 0 0 -15.88 -1.38 -19.34 -1.74 -10.4 -1.16 -11.48 -12.38 -11.48 -17.16zm-0.52 54.96 -0.54 -0.82a136.64 136.64 0 0 1 0.88 -23.52 27.44 27.44 0 0 1 1.64 -8.3c3.4 -7.02 23.74 -2.12 30.24 -1.86 2.36 0.28 5.02 0.42 6.56 -1.38s0.4 -3.5 -0.4 -4.98a17.26 17.26 0 0 1 -1.76 -13.7c7.46 -16 32.66 -8.52 30.42 9.16 -0.82 7 -4 5.66 -6.26 8.16a3.54 3.54 0 0 0 -0.9 3.6c0.8 2 3.16 2 4.86 2.2 4.94 0.3 15.9 1.18 28.2 2.4 4.6 0.44 5.26 1.14 6.32 2.3a8.7 8.7 0 0 1 1.36 2 13.14 13.14 0 0 0 -1.44 3.48 4.66 4.66 0 0 0 -2.94 1.34 62.26 62.26 0 0 0 -11.36 10 50.78 50.78 0 0 0 -19.26 -1.46 36 36 0 0 0 2 -8.56 5.54 5.54 0 0 0 1.5 -4c-0.16 -3.24 -3.2 -4.4 -6.44 -6a35.18 35.18 0 0 0 -9.14 -3.4 24.24 24.24 0 0 0 -8.62 -0.34c-2 0.16 -2.38 2.5 -2.6 4a8.36 8.36 0 0 0 -2.44 2.22 0.28 0.28 0 0 0 0 0.34c0.24 0.36 0.72 -0.24 2.76 0.24a7.2 7.2 0 0 0 -3.4 3.8 0.3 0.3 0 0 0 0.44 0.36 9.76 9.76 0 0 1 3.4 -1.44 9.74 9.74 0 0 1 -1.2 5.04c-0.52 0.92 -1.86 2 1.36 3.88 -0.94 2.6 -0.98 6.38 1.58 7.64a35.52 35.52 0 0 0 -9.44 7.22 17.82 17.82 0 0 0 -19.04 -3.62c-0.22 -2.12 1.4 -2.9 0.86 -4.34a1.12 1.12 0 0 0 -0.78 -0.74c-0.76 -0.12 -1.52 0.9 -2 1.38 -0.44 -1.34 -0.6 -4.2 -2.18 -3.64a1.32 1.32 0 0 0 -0.82 1.14 1.46 1.46 0 0 0 -1 0.32 2 2 0 0 0 -0.62 1.6c-2 1.62 -0.9 4.84 0.42 7.08a14 14 0 0 1 -10.22 1.2zm48.34 -16c-3.52 -0.42 -4.54 0 -5.74 -1.4 -0.38 -0.48 1.84 -2.2 1.62 -6.76a36 36 0 0 0 3.6 0c0.84 0 1.7 0.12 2.78 1.66 0.28 2.12 0.04 6.42 -2.26 6.42zm0.96 3.08c-1.18 2.28 -5.56 1.86 -4.58 0.22a0.78 0.78 0 0 1 1.1 -0.3 2.14 2.14 0 0 0 2.72 -0.44 0.46 0.46 0 0 1 0.76 0.44zm-5.78 -17.28c0.22 -0.9 0.52 -1.86 1.3 -2 0.44 0 1.18 1.08 1.72 2a5.32 5.32 0 0 0 -3.02 -0.08zm-9.12 30.92c-1.34 1.4 -2.6 2.82 -3.88 4.24a38.46 38.46 0 0 0 -12.7 -8 16.66 16.66 0 0 1 16.58 3.68zm-24.42 -6.62a2.82 2.82 0 0 1 0.26 -0.8 8.28 8.28 0 0 0 0.56 2c0.26 0.6 1 0.24 0.72 -0.4a6.7 6.7 0 0 1 -0.54 -2.9c0 -0.42 0 -0.8 0.34 -0.8s0.42 2 0.62 2.52 1.18 0.4 0.94 -0.28a18.88 18.88 0 0 1 -0.6 -2.68 1.64 1.64 0 0 1 0.5 -0.76c0.24 0.16 0.48 2 0.86 2.84s0.96 1.12 1.5 0.52c0.26 -0.28 0.8 -0.92 1.06 -1.14 0 0.84 -1.58 1.9 -0.9 4.5a5.5 5.5 0 0 0 -3.3 2.7 9.28 9.28 0 0 1 -2.02 -5.4zm32.84 70a49.72 49.72 0 0 0 0.88 10.88c-9.18 -0.84 -29.16 -4.86 -31.68 -5.46 -10.88 -2.58 -12 -12.86 -12 -24s-0.74 -14.68 1.04 -16.18a2.62 2.62 0 0 1 2.18 -0.4 15.22 15.22 0 0 1 6 2.66c8.4 5.64 22.24 2.4 27.86 -3.66a18.32 18.32 0 0 0 5.42 -12c2.26 -1.1 4.54 -2.2 5.46 -2.68 6.52 6.2 0 14.52 7.88 21.1a48 48 0 0 0 -12.98 29.66zm13.72 45.26c-4.66 0.36 -5.32 0.46 -4.94 0s2 -0.72 3.38 -1.7 1.22 -1.46 1.58 -1.28a5.7 5.7 0 0 0 6 -0.74c0 0.92 0.1 2.8 0.14 3.44 -1.24 -0.16 -3.82 0.02 -6.16 0.2zm-0.16 -7.08 5.36 -1.44c0 0.78 0.26 2.44 0.36 3.08 -1.52 1.86 -3.26 1.76 -5.34 0.8 -0.04 -0.66 -0.24 -1.74 -0.38 -2.52zm27.74 -59.78a88.2 88.2 0 0 1 -9.02 14.52c-0.32 0.46 0.58 11.62 7.22 22.52 -5.54 -0.62 -13.52 -1.52 -17.32 -2 0 -4.14 0 -8.38 -0.22 -12.62a48.8 48.8 0 0 0 5.6 -4.92 125.44 125.44 0 0 0 12 -18.2c0.74 -1.86 2.5 -1.46 1.74 0.62zm-18.42 1 0.38 -8a81.22 81.22 0 0 0 9.8 0.34v7.42l-5.74 3.28zm9.02 -21.74a52.38 52.38 0 0 0 -18 11.54c-8 -7 -0.72 -14.16 -7.64 -20.78l1.64 -0.94a0.48 0.48 0 0 0 -0.4 -0.86c-16.26 6.38 -22.12 13.82 -30.6 3.38a49.34 49.34 0 0 1 -6.34 -8.9 6 6 0 0 1 -0.28 -5.16c1.82 -4.1 6.7 -1.38 10.4 1.16 2.48 1.68 5.88 4.7 6.52 5.18a1.36 1.36 0 0 0 1.26 -0.12c1.06 -1.08 8.14 -9.74 12 -11.6 0.76 -0.44 1.6 -0.84 2.36 -1.28a16.2 16.2 0 0 1 3.02 -0.68c2 -0.82 5.14 -4.22 2.5 -18a6 6 0 0 0 -2.24 -3.44 13.86 13.86 0 0 0 -2.36 -4c6.34 -0.3 12.66 2.52 18.32 5.46a6.22 6.22 0 0 1 2.32 1.76c1.84 3 -1.26 5.74 -4.34 7.2a0.46 0.46 0 0 0 0.34 0.86 12.28 12.28 0 0 0 3.08 -1.5 32.88 32.88 0 0 1 -2 7.26c-0.22 0.62 -0.54 1.18 -0.14 1.48s0.36 0 0.64 0c10 -0.84 12.18 -0.52 20 1.34a0.8 0.8 0 0 0 0.62 -0.24c2.42 -3.3 8.9 -8 12.26 -10.28 2 -1.44 4.58 1.14 3.68 4.44a21.54 21.54 0 0 1 -3.36 5.88c-3.54 5.18 -8.52 11.32 -15.66 13.04 -0.58 -1.2 -1.14 -2.44 -1.66 -3.6 -0.26 -0.6 -1.24 -0.2 -1 0.4 4.16 10.88 5.72 9.5 9.3 15.22a20.22 20.22 0 0 1 2.42 8.96c-2.5 -3.02 -8.02 -6.84 -16.66 -3.26zm25.72 50.34c-0.94 -2 -1.88 -3.88 -2.8 -5.82a130.9 130.9 0 0 0 -0.24 -20.24c-0.4 -4.26 -2.28 -15.14 -4.38 -18.92 0.62 -12 -6.82 -15.4 -10 -21.86 7.26 -1.78 12.38 -8 15.64 -12.56a39.74 39.74 0 0 0 3.5 -5.3c0.18 16.26 1.02 69.08 0.82 75.16a29.84 29.84 0 0 1 -2.54 9.46zm0.78 22.36 4.84 -3.42c0.44 0.68 1.54 2.32 2 2.86 0 1.82 -1.16 3.2 -4 3.64a30 30 0 0 0 -2.84 -3.16zm1.14 10c-0.12 -0.12 -0.1 -0.52 0.18 -0.86a14.3 14.3 0 0 0 2 -4.64 5.76 5.76 0 0 0 4.7 -3.9c0.58 0.74 1.44 2 2 2.78 -2.76 1.8 -8.52 6.92 -8.88 6.54z" stroke-width="1"></path></g></svg>